<?xml version="1.0" encoding="UTF-8"?>
<svg id="Layer_1" data-name="Layer 1" xmlns="http://www.w3.org/2000/svg" viewBox="0 0 1213.67 1132.59" fill="currentColor">
  <path fill="currentColor" class="cls-1" d="M654.33,942.6l22.11-3.28,18.02-4.09,18.84-4.91,15.56-4.91,9.83-4.09,9.83-3.28,19.65-9.01,8.19-4.09h.82l4.09-2.46,6.55-3.28,20.47-12.28,7.08-5.06,.29,.14,3.28-2.46,.44-.55,.38-.27,2.35-1.69,.11,.06,12.28-9.01,18.02-14.74,13.92-13.1,4.09-4.09,1.64-3.28h1.64l1.64-2.46,7.37-7.37,5.73-7.37,7.37-8.19,10.65-14.74,6.55-9.83,5.73-8.19,11.47-20.47,6.55-13.1,9.01-19.65,7.37-20.47,4.09-13.92,4.09-15.56,4.09-21.29,2.46-18.84,1.64-20.47v-32.76l-.82-13.1-2.46-20.47-5.73-30.3-2.46-9.01-5.73-18.02-6.55-18.84-3.28-6.55-9.01-20.47-7.37-13.1-7.37-12.28-9.01-13.92-1.04-1.49-2.23-3.42-6.55-9.01-1.64-2.08-3.28-4.47-1.64-1.79-2.46-3.13-1.25-1.07-4.49-5.48-9.01-9.83-5.73-6.55-13.92-13.1-3.28-1.64v-1.64l-4.91-4.09-9.01-7.37-8.19-6.55-16.38-11.47-18.84-12.28-18.02-9.83-13.1-6.55-21.29-9.01-18.02-6.55-22.11-6.55-24.57-5.73-27.02-4.09-31.94-2.46h-24.57l-23.75,1.64-3.35,.45-4.84,.37-9.47,1.54-.77,.1h-.41l-1.64,.27-4.09,.55-6.55,1.23-7.37,1.23-.49,.25-11.79,2.21-22.93,6.55-19.65,6.55-23.75,9.83-9.01,4.09-22.93,12.28-12.28,7.37-17.2,11.47-13.1,9.83-9.01,7.37-8.19,6.55-6.55,6.55h0l-.82,.82h0l-2.46,2.46-4.09,3.28-7.37,8.19-1.64,1.64-.82,.82-9.83,10.65-7.37,9.01-9.01,11.47-5.73,8.19-8.19,11.47-10.65,18.02-9.83,18.84-9.83,22.93-7.37,20.47-6.55,23.75-4.09,19.65-2.46,16.38-2.46,24.57v36.03l1.64,21.29,2.46,18.02,3.28,17.2,3.28,13.92,6.55,21.29,7.37,19.65,6.55,15.56,8.19,15.56,11.47,20.47,9.01,13.1,5.73,9.01,16.38,20.47,9.01,9.83,5.73,6.55,3.28,1.64v1.64l12.28,11.47,6.55,5.73,8.19,7.37,13.1,9.83,7.37,5.73,10.65,7.37,15.56,9.83,11.47,6.55,19.65,9.83,12.28,5.73,17.2,6.55,17.2,5.73,17.2,4.91,24.57,5.73,23.75,3.28,25.39,2.46h40.95l25.39-2.46Zm191.02-596.49l3.07,3.58,6.55,5.73,4.91,5.73,6.55,6.55,5.73,6.55,8.19,9.01,6.55,8.19,10.65,14.74,6.55,9.83,7.37,11.47,9.83,18.84,6.55,13.1,7.37,18.02,5.73,16.38,4.09,12.28,3.28,14.74,5.73,29.48,2.46,30.3v28.66l-2.46,29.48-3.28,18.02-4.09,18.84-6.55,22.93-5.73,15.56-6.55,16.38-9.83,19.65-8.19,14.74-9.01,13.92-9.01,13.1-8.19,10.65-9.01,10.65-5.73,6.55-11.47,11.47-9.83,9.01-10.65,9.83-8.19,6.55-10.65,8.19-2.73,2.73-2.39,1.67-.61-.31-2.46,1.64-17.2,11.47-7.24,4.09h-.13l-.7,.47-5.69,3.22-10.3,5.36-11.96,5.7-17.2,7.37-21.29,7.37-26.21,7.37-23.75,4.91-17.2,2.46-20.47,1.64h-48.32l-24.57-2.46-27.84-4.91-18.84-4.91-21.29-6.55-23.75-9.01-21.29-9.83-.55,.27-1.09-1.09-5.73-3.28-8.74-4.91-9.55-5.73-7.98-5.04-5.67-3.97-.37-.15-7.82-5.58-2.34-.94-.61-.46,.49-.25-10.65-8.19-5.73-4.91-9.01-7.37-16.38-16.38-11.47-12.28-10.65-13.1-17.2-22.93-8.19-13.1-10.65-18.84-7.37-16.38-6.55-15.56-8.19-23.75-7.37-29.48-3.28-18.84-2.46-20.47-.82-13.1v-27.84l2.46-27.02,4.09-25.39,7.37-29.48,9.01-25.39,10.65-24.57,9.01-16.38,13.1-21.29,8.19-11.47,7.37-9.83,10.65-13.1,5.73-6.55,19.65-19.65,9.01-7.37v-1.64h1.64l8.19-6.55,11.79-9.17,5.41-3.93,9.17-6.31,8.03-5.16,12.28-7.37,13.17-7.18,.76-.19,4.09-2.46,14.74-6.55,13.92-5.73,12.28-4.91,3.06-.87,.22,.05,8.19-2.46,17.2-4.91,27.02-5.73,23.75-3.28,22.11-1.64h23.75l18.02,.82,23.75,2.46,24.57,4.09,23.75,5.73,14.74,4.91h0l14.74,4.91,11.47,4.91,7.37,3.28,18.02,8.19,17.2,9.83,13.1,8.19,20.47,13.92,18.02,14.74h1l3.3,2.97Z"/>
  <path fill="currentColor" class="cls-1" d="M812.39,459.42l-21.29-1.64h-31.12l-10.65,.82-24.57,3.28-19.65,4.91-17.2,5.73-15.56,6.55-21.29,10.65-9.01,6.55-11.47,8.19-4.91,.82v-1.64l.82-8.19,.18-1.91,.64-3.82,2.05-24.57,3.69-39.31,2.46-4.09,5.73-1.64,4.09-4.09,2.46-4.09v-5.73l-.82-2.46-2.46-.82-.82-2.46-6.55-4.09v-4.91l1.64-3.28,2.46-9.83-.82-7.37-4.09-11.47-5.73-8.19-4.09-4.09h-5.73l-1.64-1.64-3.28-13.1-4.09-9.83-3.28-4.09h-4.09l-.82,.82-3.28,9.01-5.73,9.83-8.19,10.65-6.55,8.19-.38,.63-2.08,2.65-.61,1.84-1.84,3.07-2.46,7.37v8.19l.82,3.28,.82,1.64,.82,2.46,.82,.82,.82,1.64,.82,5.73-6.55,4.09-3.28,6.55,.82,6.55,4.91,4.91,4.91,2.46,2.46,3.28,2.46,22.11,1.64,20.47,2.46,22.93v13.92h-3.28l-9.01-6.55-11.47-7.37-18.02-9.83-13.1-5.73-16.38-5.73-3.77-.98-1.97-.66-6.25-1.49-6.85-1.79-2.95-.55-1.15-.27-.71-.07-7.48-1.38v-.18l-9.83-1.64-20.47-1.64h-33.58l-9.01,.82-19.65,2.46-4.37,.82h-1.36l-7.37,1.64-19.65,4.91-15.56,4.91-4.91,3.28-.82,5.73-.82,32.76v149.05l.82,38.49,3.28,3.28,3.28-.82,8.19-5.73,13.1-7.37,16.38-7.37,19.65-5.73,8.19-1.64,22.11-2.46,24.57,.82,18.84,3.28,19.65,5.73,13.1,4.91,15.56,7.37,17.2,9.83,14.74,10.65,10.65,8.19,8.19,7.37,6.55,5.73,7.37,7.37,4.09,.82,4.09-3.28,6.55-11.47,3.28-3.28,4.09,.82,.82,2.46,7.37,11.47,3.28,3.28,4.09-.82,4.09-4.09,5.73-4.91,6.55-5.73,.82-2.46,3.28-1.64,11.47-9.01,9.83-7.37,7.37-4.91,18.84-10.65,14.74-6.55,13.1-4.91,17.2-4.91,20.47-3.28h35.21l10.65,1.64,11.47,2.46,18.02,5.73,22.11,10.65,12.28,8.19,5.73,.82,1.64-1.64,.82-37.67v-151.5l-.82-36.03-.82-1.64-4.91-3.28-12.28-4.09-22.93-5.73-23.75-4.09Zm-145.77,33.58l18.84-9.01,27.02-9.01,22.93-4.91,23.75-2.46h36.03l16.38,1.64,18.84,3.28,18.02,4.09,13.92,4.09,4.09,4.09v162.97l-1.64,1.64h-4.09l-14.74-6.55-17.2-5.73-16.38-3.28-14.74-1.64h-30.3l-13.1,1.64-17.2,3.28-14.74,4.09-20.47,7.37-13.1,5.73-13.1,6.55-14.74,8.19-10.65,6.55-9.83,7.37-10.65,8.19-11.47,9.01-4.09-.82-.82-8.19v-151.5l2.46-6.55,9.83-9.83,9.83-9.01,13.92-10.65,17.2-10.65Zm-67.97,40.13l2.46,4.09v162.15l-.82,.82-4.09-.82-4.91-4.09-10.65-9.01-9.01-6.55-13.92-9.01-2.46-.98-3.28-2.29-13.92-7.37-13.1-6.55-19.65-8.19-21.29-6.55-18.84-4.09-21.29-2.46h-28.66l-13.1,1.64-15.56,3.28-17.2,5.73-11.47,5.73h-7.37l-.82-.82v-162.97l2.46-2.46,9.01-3.28,22.93-5.73,19.65-3.28,18.84-1.64h32.76l12.28,.82,15.56,2.46,22.93,4.91,19.65,6.55,16.38,7.37,14.74,8.19,9.01,5.73,15.56,11.47,9.01,8.19,5.73,6.55h1.64l.82,2.46Zm37.67-130.21l3.28,2.46,.82,4.91-1.64,2.46-4.91,2.46h-47.5l-9.01-1.64-2.46-4.09,.82-4.09,3.28-2.46h57.33Z"/>
  <polygon fill="currentColor" class="cls-1" points="785.36 812.39 782.94 812.43 782.09 812.39 743.6 813.21 742.78 814.02 740.32 818.12 740.32 823.85 742.78 827.95 746.87 829.58 768.98 830.4 770.62 832.04 771.44 837.77 769.36 841.23 761.38 844.56 759.48 845.25 748.51 847.6 732.13 847.6 723.94 845.96 716.57 842.69 710.02 836.95 706.74 835.32 705.92 831.22 702.65 820.58 702.65 811.57 703.47 807.47 706.74 799.28 712.48 792.73 721.48 787.82 732.13 785.36 748.51 785.36 758.51 788.44 761.89 790.55 764.62 792.46 768.16 796.01 768.71 796.28 768.98 796.83 770.13 796.99 773.08 798.46 781.27 798.46 795.19 796.01 796.01 794.37 796.01 789.46 792.73 784.54 785.36 777.99 775.53 773.08 775.53 773.08 773.9 772.26 772.09 772 767.89 770.69 768.16 770.62 762.43 768.98 746.87 767.34 739.5 767.34 727.22 768.16 716.57 769.8 711.25 771.44 710.02 771.44 705.92 773.08 692.82 779.63 684.63 787 678.08 795.19 673.99 805.84 673.17 819.76 673.99 825.49 674.43 826.72 674.8 828.77 676.67 832.86 677.26 834.5 677.32 834.31 677.95 835.69 678.08 836.14 678.39 836.65 678.9 837.77 680.54 840.23 682.99 844.33 688.73 850.06 689.71 850.45 692 852.51 701.83 858.25 716.57 863.16 738.68 865.62 761.61 863.98 767.34 863.16 768.05 862.69 773.9 861.52 787 857.43 796.83 852.51 800.1 847.6 800.1 816.48 796.83 813.21 785.36 812.39"/>
  <polygon fill="currentColor" class="cls-1" points="995.83 769.8 994.32 769.01 991.73 767.34 990.81 767.16 986.17 764.72 987.64 763.25 980.27 759.16 974.54 758.34 974.54 758.75 967.17 755.06 959.8 754.24 957.34 757.52 957.22 758.1 956.52 759.16 956.77 760.38 956.52 761.61 957.19 762.51 957.34 763.25 958.36 764.07 958.98 764.89 960.07 765.43 961.43 766.53 962.25 766.53 965.53 768.16 992.55 782.09 995.01 786.18 995.01 792.73 993.37 796.01 988.46 800.1 981.09 800.1 978.63 799.28 970.44 795.19 956.52 788.64 949.15 785.36 943.42 785.36 940.96 787.82 940.14 793.55 940.96 794.37 945.87 797.65 958.98 804.2 973.72 810.75 981.09 813.21 987.64 813.21 995.01 810.75 1000.74 805.02 1007.29 791.91 1007.29 782.9 1003.2 774.72 995.83 769.8"/>
  <path fill="currentColor" class="cls-1" d="M1212.85,425.44v-.41l-.44-.25-.38-.57-2.76-1.23-2.15-1.23-.98-.16-1.47-.66-5.73-.55-1.64-.27-2.35-.11-7.48-.71-12.28-2.46-11.47-6.55-9.83-9.01-4.09-4.09-3.28-4.91h-1.64v-1.64l-5.73-6.55-9.01-12.28-8.19-11.47-4.91-6.55-.87-1.53,.05-.11-.82-1.23-1.64-2.87-5.79-7.96,.06-.23-4.91-7.37-.2-.2-2.31-3.64,.06-.25-10.65-16.38-5.73-9.01-3.28-4.91h0s-15.63-23.45-15.63-23.45l-2.38-3.57h0s-6.55-9.83-6.55-9.83l-8.19-11.47-11.47-15.56-4.5-5.32-3.69-4.5-3.68-4.09-2.87-3.28-.51-.48-.31-.34-1.64-1.47-9.83-9.17-3.28-2.62-1.64-1.47-.82-.49-2.46-1.97-1.84-.61-3.07-1.84-10.65-5.73-1.32-.25-1.13-.57-3.28-.82h0l-9.83-2.46h-18.84l-5.73,.82-8.19,2.46-8.19,.82-.82-.82v-14.74l-.82-5.73-.41-1.64-.41-2.46-.68-1.91-.96-3.82-1.43-2.87-1.02-2.87-1.91-3-.55-1.09-.98-1.31-2.29-3.6-1.02-.82-3.07-4.09-8.19-7.37-3.28-2.62-1.64-1.47-1-.64-2.27-1.82-4.31-2.37-1.42-.91-.57-.19-10.08-5.54-9.83-4.09-19.65-7.37-5.85-1.87-3.98-1.4-.55-.05-10.09-3.23-20.47-5.73-36.03-9.83-.17-.02-5.56-1.5v-.11l-5.46-1.36-10.1-2.73-10.12-2.65-11.17-3.08-1.21-.16-11.89-3.11-27.02-8.19-19.66-6.55-17.12-7.13-.08-.24-1.75-.53-.7-.29-13.92-8.19-3.28-1.64v-1.64l-1.64-.82-4.91-8.19-7.37-16.38-2.46-4.09-4.09-4.09-7.37-.82-2.46,.82-.16,.23-1.47,.59-4.09,4.91-4.91,12.28-4.91,9.83-1.64,4.09h-1.64l-2.46,2.46-.82,.82-7.37,4.91-.82,.82-10.65,5.32-4.91,2.05-16.38,6.55-14.74,4.91-5.58,1.68-.15-.04-18.84,5.73-5.66,1.49-.89,.15-2.78,.82-6.22,1.64-20.47,5.73-19.65,4.91-8.77,2.46h-.23l-11.47,3.28-24.57,6.55-24.57,7.37-6.53,2.35-.84,.1-4.09,1.64-.11,.07-8.9,3.2-9.83,4.09-5.73,1.64-6.55,3.28-7.37,4.09-1.8,1.15-2.29,1.31-1.54,1.13-3.38,2.15-.84,.94-2.22,1.63-.22-.11-4.09,3.28v1.64h-1.64l-4.91,5.73-5.73,7.37-6.55,13.1-2.46,13.1v15.56l-1.64,1.64-13.1-3.28-11.47-2.46h-14.74l-7.37,.82-13.1,4.09-1.97,.98-.49-.16-7.37,4.09-11.47,7.37-.66,1.97-.16,.08-.82-.41-1.64,1.64-6.55,5.73-4.91,5.73-4.91,4.91v.52l-3.28,3.57-9.01,11.47h0s-3.28,4.09-3.28,4.09l-.23,.58-1.4,1.87,.36,.73-.11,.28-1.89,.63-4.09,5.73-.33,.66-2.95,4.26-9.01,13.1-4.91,7.37-5.73,9.01-5.73,8.19-.43,.67-2.02,2.6-.38,1.13-4.54,7.06-9.01,13.92,.03,.05-5.76,8.96-4.56,7.6-7.72,11.23-4.91,6.55-.44,1.09-.38,.55-9.83,13.92-8.97,12.41-3.91,4.78-5.96,6.55-2.87,3.28-3.32,3.68-1.8,1.64-10.03,8.6-7.37,4.09-13.92,3.28-13.1,.82-7.37,1.64-4.91,3.28-2.46,4.09,.82,4.91,2.46,4.09,1.16,.96,.48,.67,.82,.41,2.46,2.05,8.19,5.73,7.37,5.73,.82,.41,1.64,1.23,5.73,7.37,4.09,10.65,3.28,13.92,2.46,20.47,1.64,26.21,1.64,95,.82,22.93,2.46,33.58,3.28,18.02,1.64,5.57v.98l3.28,9.83,2.46,5.4,.82,1.97,.36,.64,.45,1,2.46,4.09,3.28,5.73,7.37,8.19,9.01,7.37,13.1,6.55,13.92,4.09,.74,3.69-.74,1.23,.1,.05-3.37,4.05-2.18,4.09-1.09,1.64-.36,1.09-2.91,5.46-3.28,11.47v18.84l2.46,9.83,.82,2.18v.27l4.09,10.65,4.09,7.37,3.28,6.55,9.83,14.74,3.82,5.19,2.73,3.82,2.05,2.66,2.87,3.89,7.26,9.49,.11,.34,3.28,4.09h1.64v1.64l1.4,1.87,.23,.58,3.28,3.82,.82,1v.09l1.15,1.31,2.95,3.6,5.73,7.37,6.76,7.99,5.53,6.76,1.31,1.47,6.88,8.35,5.73,6.55,14.74,18.02,9.01,11.47,7.33,9.62,.04,.21,1.36,1.64,2.18,2.87,4.64,6.96,3.28,4.5,.82,1.23,5.29,8.32,.85,1.51,6.14,12.28,3.28,10.65v5.73l-4.09,18.84v9.83l.82,4.91,2.46,2.46h5.73l11.47-3.28,9.83-5.73,11.47-4.91h18.84l5.73,.82,21.29,4.09,5.73,1.64,24.57,7.37,3.21,.94,12.35,3.97,7.37,2.46h0s0,0,0,0l4.91,1.64,1.64,.82,1.36,.27,15.01,5.46,27.02,9.01,8.69,2.96,.32,.32,13.35,4.34,13.68,4.67,.36,.1,2.1,.71,.82,.14,16.38,4.78,15.56,4.09,22.93,4.91h33.58l4.91-.82,1.23-.41,2.05-.41,3.48-1.43,.61-.2,.08-.08,9.75-4.01,7.97-5.84,.22,.11,3.28-2.46,.42-.53,.4-.29,4.09-4.09,2.05-2.87,.41-.41v-.16l1.64-2.29,4.09-4.09,3.28,.82,5.73,8.19,2.46,.82v1.64l9.83,8.19,5.32,2.87,3.69,2.05,.19,.04,1.45,.78,1.5,.34,2.59,1.3,12.28,3.28h31.94l25.39-4.91,25.39-7.37,24.23-8.27,.34,.08,11.46-4.09,17.2-5.73,29.92-10.74,.38,.09,7.6-2.92,7.96-2.81,9.83-3.28,26.21-8.19,22.93-5.73,21.29-3.28h7.37l9.01,1.64,12.28,6.55,17.2,9.83h4.91l1.64-.82,7.37-6.55,.82-5.73-8.19-24.57v-12.28l.82-3.28,4.91-10.44,4.64-8.12,6.01-9.28h0l4.91-7.37h0s6.55-8.74,6.55-8.74l4.91-6.01v-.47l4.09-5.26,5.34-6.31,1.21-1.06-.07-.29,2.53-2.99,1.64-2,4.09-4.55v-.45l1.64-2,1.16-1.37,2.11-1.9-.11-.46,5.85-6.91,9.83-11.47,7.37-9.01,3.28-4.09,6.55-7.37v-.27l6.55-7.1,8.19-10.65,1.64-3.28h1.64l.82-3.28h1.64l7.37-9.83,.82-1.15,1.64-2.13,2.66-3.89,3.07-4.3,9.83-14.74,6.55-12.28,.23-.61,1.4-2.67,.6-2.53,1.86-4.84,3.28-13.1v-18.02l-.82-4.09-1.76-4.91-.7-2.46-.61-1.23-1.02-2.87-1.5-2.18-.14-.27-.94-1.29-5.71-8.31-.19-1.14,.29,.1-.51-1.54,.4-2.01,5.84-2.19,5.73-1.64v-.27l1.64-.55h.82l1.64-.82,2.46-.82,4.09-2.46,1.64-.82,.05-.19,2.41-1.45,7.37-4.91,5.73-5.73,6.55-9.01,1.23-2.25,1.23-1.84-.07-.28,2.53-4.63,5.73-14.74,.18-2.37,1.46-5.82,2.46-13.1,2.46-21.29,1.64-36.03,1.64-99.91,2.46-31.94,2.46-17.2,2.46-9.83,4.09-10.65,3.28-4.91,7.76-6.47,.43-.09,.66-.82,.98-.82,13.1-9.01,4.09-5.73v-8.19l-.82-1.23Zm-292.36-205.96l4.91-4.09,9.01-4.91,6.43-2.92,5.72-1.76,9.96-1.87h8.19l8.19,1.64,11.47,4.09,10.65,6.55,9.83,9.01,.82,.82h.82l1.64,.82v1.64l3.68,4.09,2.87,3.28,.25,.19,.57,.63,2.46,3.19v.08l5.73,7.37h1.64v1.64l2.46,3.07,4.91,6.76,5.46,7.64,.27,.4v.15l5.73,8.19h0s7.37,11.47,7.37,11.47l1.36,1.36,1.91,2.73,.41,.68,.41,.96,.3,.22,6.25,10.42h1.64v1.64l2.46,3.86v.23l4.09,6.55,.7,.7,6.46,9.94,5.12,8.19,.41,.41,2.87,4.5,11.47,17.2h0l8.19,12.28,.45,.36,1.18,1.72v.37l8.19,11.47,1.42,1.81,1.03,1.47,10.65,13.92,7.37,8.19,1.64,1.64,.82,1.64h.82l.82,.82,3.28,4.09,6.55,5.73,.61,.31,5.12,4.61,13.1,6.55,7.37,1.64,4.09,1.64-.61,3.07-1.84,1.84-.72,1.2-3.37,2.89-4.91,6.55-4.91,9.83-4.09,14.74-3.28,17.2-2.46,30.3-.82,23.75-.82,52.41-1.64,57.33-2.46,27.84-4.91,23.75-4.91,11.47-5.73,9.01-1.64,3.28h-1.64l-8.19,7.37,.3,.15-2.14,1.28-3.07,1.02-13.1,4.09-15.56,.82-9.01-.82-1.64-2.46,1.64-7.37,7.37-24.57,6.55-30.3,4.91-31.94,2.46-28.66v-48.32l-1.64-22.93-4.09-31.12-4.09-21.29-4.91-21.29-3.28-10.65-7.37-23.75-7.37-18.84-4.91-12.28-8.19-17.2-9.01-18.84-8.19-13.1-9.83-16.38-8.19-12.28-7.37-10.65-6.55-9.01-9.01-11.47-7.37-9.01-7.37-8.19-5.73-6.55-21.29-21.29-6.55-5.73-9.83-9.01-2.46-1.23-4.09-4.5-9.01-7.37-2.46-1.23-.61-.51-1.02-1.54,.82-6.55h1.64ZM44.22,434.04l1.23-.51,1.23-.31,2.46-1.23,4.91-2.05,2.05-1.43,2.05-1.02,11.47-9.01v-1.64h1.64l10.65-11.47,10.65-13.1,12.28-16.38,.55-1.09,2.73-3.82,5.73-8.19,8.19-12.28,1.5-2.32,.14-.14,.11-.24,7.26-11.23,8.19-12.28,5.73-9.01,10.65-16.38,6.55-9.83,5.73-9.01,5.73-8.19,3.69-5.22,.41-.51v-.05s5.73-8.14,5.73-8.14h0s2.46-3.28,2.46-3.28v-.1l4.09-5.63,9.83-12.28,.52-.6,.3-.22,4.09-4.09,1.28-2.24,.36-.21,1.23-2.46h1.23l7.02-6.43,5.26-4.21,7.37-4.91,5.46-2.73,3-1.09,9.55-2.73h18.84l9.01,2.46,6.96,2.87,4.5,2.05,6.76,3.69,5.53,3.69,.82,2.46-.82,3.28-7.37,5.73v1.64l-2.46,.82-9.01,7.37-8.19,7.37-6.55,5.73-20.47,20.47h0s-.82,.82-.82,.82v.82l-.82,1.64-.82,.82v-.82l-6.55,6.55-10.65,12.28-6.55,8.19-5.73,7.37-7.37,9.83-9.83,13.92-8.19,12.28-9.83,16.38-9.01,16.38-11.47,23.75-7.37,17.2-6.55,16.38-5.73,17.2-4.09,13.1-5.73,21.29-6.55,32.76-2.46,18.84-2.46,28.66-.82,27.02,.82,26.21,1.64,20.47,2.46,22.11,4.91,24.57,8.19,33.58,4.09,12.28,1.64,8.19-2.46,2.46-7.37,.82-15.56-.82-9.83-2.46-8.19-4.09-.66,.33-2.62-1.97-1.64-1.64-1.64-.82-2.46-2.46-.82-1.64-5.73-7.37-5.73-11.47-3.28-10.65-4.09-25.39-2.46-35.21-.82-40.13-.82-68.79-.82-13.1-2.46-27.02-3.28-18.02-3.28-10.65-4.91-10.65-.16-.23-.66-1.4-1.09-1.09-3.82-5.46-5.73-4.91-.82-4.09,2.73-1.09,5.46-1.36h.82ZM531.49,77.8l7.37-2.46v-.82l12.28-4.09,13.4-5.36,1.34,.45,5.73-2.46,13.92-7.37,6.55-4.91-.18-.09,1.82-.73,8.19-8.19-.08-.34,5-7.85,4.09-.82,5.73,9.01,9.01,9.01,9.83,6.55,17.2,8.19,17.2,6.55,1.23,.41,2.87,1.23,1.43,.2,16.58,5.53,5.73,1.15v.49l22.93,6.55,6.55,1.64,18.02,4.91,16.85,4.45,7.72,2.11,.7,.12,33.69,8.89,13.1,4.09,.66,.09,5.07,1.54,25.39,8.19,21.29,8.19,13.1,6.55,9.01,5.73,9.01,9.01,4.91,7.37,4.09,11.47v18.02l-3.28,10.65,.44,1.77-.44,1.51h-.82l-3.28,5.73-4.09,.82-5.73-3.28-12.28-8.19-7.37-4.5-3.28-2.05-10.65-6.55-13.1-7.37-7.72-3.74-5.38-2.81-7.16-3.28-6.76-3.28-.73-.15-14.01-6.41-18.02-7.37-16.41-5.71,.04-.02-2.45-.82h0s0,0,0,0l-2.46-.82-22.11-6.55-1.06-.13-11.23-3.14-31.12-6.55-25.39-4.09-23.75-2.46-36.03-1.64h-13.92l-36.85,1.64-28.66,3.28-36.85,6.55-22.93,5.73-10.65,3.28h0s-10.65,3.28-10.65,3.28l-21.29,7.37v.55l-1.87,.62-1.4-.35-12.28,4.91-15.56,6.55-17.2,8.19-13.1,6.55-17.2,9.83-18.84,11.47-13.1,9.01h-6.55l-3.28-6.55-4.09-17.2v-7.37l2.23-9.68,2.68-6.7h0s3.51-5.62,3.51-5.62l1.4-1.75v-.82l.82-1.64h1.64l4.09-4.09,11.47-8.19,9.83-4.91,11.47-4.91,15.56-5.73-.73-.18,3.18-.64,14.74-4.91,20.47-5.73,17.2-4.91h0l20.47-5.73,.31-.2,2.15-.61v-.48l2.16-.58,5.21-.58,22.11-5.73,15.56-4.09,13.1-4.09v-.82l13.1-3.28,7.37-2.46h2.46Zm31.94,1035.96v.53l-2.37,.51-6.64,.6h-18.84l-7.48-1-14.28-2.75-9.69-2.15-9.27-2.53-12.64-3.74-10.38-3.24-1.01-.33-1.59-.64-.81-.15-13.34-4.36-23.28-7.93-13.67-4.77-16.05-5.73-19.65-6.39-17.2-5.9-1.81-.23-9.66-3.05-2.7-.76,.25-.06-18.02-4.91-21.29-4.91-14.74-1.64h-7.37l-13.1,1.64-5.73,2.46-6.55,.82-.82-18.84-.82-3.28-2.46-6.55-.82-2.46-.55-1.18-1.09-2.91-1.31-2.29-1.97-4.26-1.09-1.09-2.18-3.82-8.19-13.1-5.78-8.09,.05-.1-1.09-1.36-1.37-1.91-6.25-8.34-1.12-1.49h0s-2.46-3.28-2.46-3.28l-7.37-9.01-5.73-7.37-7.37-9.01-8.19-9.83-6.55-8.19-9.83-11.47-6.55-8.19-7.37-9.01-9.83-11.47-8.19-10.65-1.69-2.35,.06-.11-2.46-3.28-7.51-10.51-4.78-7.51-5.73-8.19-1.64-3.46v-.64l-2.46-4.91-4.25-9.71-2.31-7.49v-18.84l3.28-9.01,4.91-7.37,7.37-6.55,7.37-5.73,5.73-2.46,4.09,1.64,1.64,4.09,9.83,22.11,12.28,23.75,6.55,11.47,4.91,8.19,7.37,11.47,5.73,9.01,5.73,8.19,4.09,4.91v-.55l.82,1.09v1.09l7.37,9.83,14.74,18.02,7.37,8.19,5.73,6.55,18.84,18.84,6.55,5.73,11.47,10.65,18.02,14.74,9.83,7.37h.99l2.45,1.8,3.11,3.11,9.01,6.55,9.01,5.73,12.28,8.19,7.37,4.09,12.28,7.37,13.92,7.37,18.84,9.01,11.47,5.73,25.39,9.83,14.74,4.91,23.75,7.37,31.12,7.37,21.29,4.09,30.3,4.09,36.85,2.46,4.09,1.64,.82,4.09-2.46,8.19-6.55,11.47-.82,1.64-10.65,9.01,.16,.05-.98,.76-11.47,4.91Zm-40.13-66.33l-17.2-3.28-14.74-3.28-20.47-5.73-16.38-4.91-16.38-5.73-22.93-9.01-18.02-8.19-11.47-5.73-18.02-9.83-17.2-9.83-12.28-8.19-10.65-7.37-15.56-11.47-10.65-8.19-11.47-9.83-6.55-5.73-14.74-14.74-4.62-4.05-.29-.87h-.7l-.94-.82-8.19-9.01-7.37-8.19-10.65-12.28-9.01-11.47-9.83-13.1-8.19-11.47-8.19-13.1-6.55-10.65-8.19-14.74-10.65-22.11-6.55-14.74-4.91-11.47-7.37-20.47-9.01-29.48-4.09-18.84-4.91-27.02-3.28-27.84-1.64-26.21v-26.21l.82-13.92,1.64-19.65,4.91-36.03,6.55-29.48,7.37-25.39,6.55-18.02,6.55-17.2,12.28-26.21,9.83-18.84,4.91-9.01,17.2-27.02,9.01-12.28,7.37-9.83,9.01-11.47,5.73-6.55,8.19-9.01,1.64-3.28h1.64l.82-1.64,25.39-25.39-.15-.07,1.06-.93,.73,.18,8.19-7.37,7.64-6.55,3-2.46,.34-.41,.48-.41,6.55-4.91,8.19-6.55,8.19-5.73,12.28-9.01,17.2-10.65,18.02-10.65,8.19-4.09,15.56-8.19,18.02-8.19,22.54-9.16,17.82-6.17,11.23-3.51h0l4.37-1.37,6.28-1.91,35.21-8.19,31.12-4.91,30.3-3.28,24.57-.82h43.4v.82l13.1,.82,20.47,2.46,19.65,3.28h0l4.91,.82-.25-.99,.25,.04v.13l5.23,1,20.97,4.74,18.84,4.91,27.84,9.01,18.84,7.37,4.91,2.02v.43l9.01,4.09,17.2,8.19,15.56,8.19,19.65,10.65,1.56,.52,.89,.55v.57l4.91,3.28,18.02,11.47,12.28,9.01,9.01,6.55,11.47,9.01,8.19,7.37,1.96,.78,.5,.41v.45l6.55,5.73,26.21,26.21,7.21,7.86,4.26,4.97,4.91,6.01,1.15,1.31,10.32,12.61,5.73,7.37,5.73,8.19,2.18,3,3.55,5.19,5.73,8.19,.47,.7,.35,.94,.55,.41,.27,.41,6.55,10.65,4.91,8.19,9.83,18.02,7.37,15.56,10.65,23.75,.31-.46,.51,1.28v1.64l2.46,6.55,6.55,18.02,5.73,19.65,4.09,16.38,4.91,26.21,2.46,13.92,2.46,22.11,1.64,24.57v30.3l-.82,17.2-3.28,31.12-4.91,27.02-4.09,18.84-5.73,21.29-9.01,27.02-5.73,13.92-13.1,29.48-7.37,13.92-4.91,9.01-5.73,9.01-6.55,10.65-10.65,15.56-6.55,9.01-8.19,11.47-9.83,11.47-7.37,9.01-6.55,6.55-1.64,3.28h-1.64l-2.46,2.46-5.02,5.73-2.9,2.73-4.37,3.82-4.91,4.91-4.09,3.82-6.55,6.01-6.55,5.73-1.17,1.05-4.56,3.86-4.03,3.28h-.06l-9.01,7.37-11.47,8.19-8.19,5.73-5.73,4.1-10.65,7.1-9.05,5.53-13.88,7.84-.08,.08-5.65,3.19-15.56,8.19-13.1,5.73-14.74,6.55-26.21,9.83-22.93,7.37-14.74,4.09-20.47,4.91-22.11,4.09-23.75,3.28-29.48,2.46-22.93,.82h-15.56l-45.86-3.28-27.02-4.09Zm481.54-99.09l-.12,.23-3.16,3.86-13.1,16.38-8.19,10.65-5.32,7.37-1.23,1.64-.55,.82-3.55,4.91-3.68,5.73-2.87,4.1-6.55,12.28,.16,.49-.98,1.97-1.11,4.99-.19,.46-.34-1.35-1.64,4.09-2.46,13.1,.82,5.73,.82,9.01-3.28-.82-8.19-4.09-13.92-2.46h-9.83l-13.92,1.64-11.47,2.46-22.11,5.73-18.84,5.73-22.93,7.37-10.37,3.82-12.56,4.37-5.36,2.23-1.84,.68-1.81-.45-4.91,1.64-22.93,8.19-13.1,4.91-18.84,5.73-13.1,4.09-15.56,4.09-10.65,2.46-15.56,2.46h-18.84l-9.83-1.64-9.83-4.09-6.76-4.3-3.07-3.07-2.18-1.91-1.91-2.18-.74-.3-1.13-1.69,.23-.47-2.46-4.09-4.91-13.1,.82-4.09,4.91-1.64,28.66-1.64,32.76-4.09,27.02-4.91,21.29-4.91,19.65-5.73,20.47-6.55,11.47-4.09,26.21-10.65,15.56-7.37,22.11-11.47,15.56-9.01,13.1-8.19,9.01-5.73,11.47-8.19-.43-.22,1.38-.95,.69,.34,8.19-5.73,13.1-10.65,11.47-9.01,9.01-8.19,2.18-1.91,1.09-.55v-.41l3.28-2.87,18.02-18.02,11.47-12.28,7.37-9.01,7.37-8.19,7.37-9.01,9.83-13.1,8.19-11.47,6.55-9.83,12.28-19.65,8.19-14.74,6.55-13.1,12.28-26.21,3.28-7.37,6.55-.82v.82l9.83,6.55,6.55,6.55,5.73,8.19,3.28,9.01,.82,13.92-.82,4.91-2.75,9.64-3.71,7.87-4.29,8.16-8.29,13.02-3.69,5.32-4.18,5.7-5.85,7.6-9.01,11.47-8.19,9.83-7.37,9.01-.08,.16-3.19,3.93-1.29,1.49-1.99,1.79,.12,.36-5.36,6.19-2.95,3.27-.23,.47-6.32,7.72-4.8,5.68-.11,.05-4.91,5.73v.82l-.82,1.64h-1.64l-4.09,4.91Z"/>
  <polygon fill="currentColor" class="cls-1" points="906.56 352.14 906.56 357.06 913.12 365.25 920.49 374.25 923.92 378.03 923.76 378.35 928.68 383.26 933.59 383.26 935.23 381.63 936.05 378.35 934.41 375.07 927.86 366.88 922.94 360.33 922.12 355.42 931.13 348.05 945.05 337.4 951.61 331.67 955.7 327.58 954.88 323.48 951.61 320.2 947.51 320.2 940.96 325.12 927.04 335.76 926.32 336.38 919.67 341.5 906.56 352.14"/>
  <polygon fill="currentColor" class="cls-1" points="395.41 217.67 395.55 218.66 399.64 226.85 399.64 226.85 401.28 230.53 401.28 230.94 406.19 241.59 414.38 259.6 417.66 262.88 421.75 262.88 425.03 261.24 425.85 258.78 425.03 253.87 417.66 239.13 415.2 231.76 419.3 231.76 432.4 239.95 441.41 245.68 445.71 248.07 445.5 248.14 448.78 249.78 455.33 248.96 459.42 245.68 458.61 240.77 449.6 221.11 445.5 212.92 445.5 212.92 443.86 209.65 442.93 207.54 443.05 207.19 440.59 202.28 437.31 196.55 433.22 194.91 429.94 195.73 428.3 197.36 428.3 203.1 434.04 215.38 438.13 226.85 435.67 227.66 430.76 225.21 430.76 225.21 429.12 224.39 417.66 216.2 405.37 208.83 399.64 208.83 398 209.65 397.59 210.06 395.55 211.29 395.38 212.27 394.73 212.92 394.98 214.69 394.73 216.2 395.41 217.67"/>
  <polygon fill="currentColor" class="cls-1" points="969.62 441.41 964.71 444.68 964.71 448.78 967.17 452.87 972.08 453.69 975.36 452.05 991.73 445.5 1003.2 439.77 1016.3 434.04 1020.4 430.76 1020.4 425.85 1017.94 422.57 1013.85 421.75 996.65 429.12 969.62 441.41"/>
  <polygon fill="currentColor" class="cls-1" points="1041.69 651.06 1029.41 648.6 1021.22 648.6 1017.94 651.87 1016.3 661.7 1016.3 670.71 1017.94 673.17 1023.67 673.17 1025.31 672.35 1027.77 664.16 1029.41 663.34 1035.96 664.16 1036.78 669.89 1036.78 677.26 1035.14 681.36 1031.86 685.45 1025.31 688.73 1013.85 688.73 1009.75 687.91 1001.56 683.81 997.47 675.62 998.29 667.43 999.92 664.98 1004.02 660.88 1008.11 657.61 1008.93 651.06 1007.29 648.6 1001.56 647.78 997.47 649.42 990.91 655.15 988.46 660.06 986 669.89 986.82 681.36 988.46 685.45 993.37 692.82 997.47 696.1 1004.02 699.37 1013.85 701.83 1023.67 701.83 1031.04 700.19 1035.14 697.74 1040.87 692.82 1045.78 685.45 1048.24 677.26 1048.24 664.98 1045.78 655.15 1041.69 651.06"/>
  <polygon fill="currentColor" class="cls-1" points="199 720.67 206.37 720.67 208.01 726.4 212.92 741.14 215.38 744.41 221.11 744.41 222.75 742.78 223.57 738.68 218.66 722.3 217.84 714.93 221.11 714.11 226.03 713.3 228.48 714.93 235.04 734.59 237.49 738.68 243.22 739.5 246.5 737.04 246.5 732.95 244.04 724.76 239.95 711.66 235.04 698.55 230.12 696.92 208.01 704.29 180.17 713.3 178.53 715.75 179.35 723.12 189.17 752.6 191.63 755.06 196.55 755.06 199.82 752.6 199.82 748.51 193.27 729.67 193.27 723.94 199 720.67"/>
  <polygon fill="currentColor" class="cls-1" points="1025.31 715.75 986.82 703.47 981.09 702.65 977.81 705.11 976.99 710.84 979.45 713.3 986 715.75 1003.2 721.48 1006.47 724.76 1001.56 726.4 983.54 730.49 970.44 733.77 968.8 735.41 966.35 739.5 966.35 745.23 967.98 746.05 975.36 749.33 989.28 753.42 1014.66 761.61 1021.22 761.61 1022.85 759.97 1023.67 754.24 1021.22 751.79 996.65 743.6 995.83 740.32 999.1 739.5 1016.3 735.41 1030.22 731.31 1034.32 727.22 1035.14 722.3 1033.5 719.03 1025.31 715.75"/>
  <polygon fill="currentColor" class="cls-1" points="185.9 694.46 186.72 692 188.36 692 194.09 687.09 203.1 679.72 208.01 679.72 213.74 682.99 217.84 686.27 226.85 692 230.94 691.18 230.12 682.18 227.66 678.08 208.01 664.98 204.73 663.34 205.55 660.06 219.48 657.61 223.57 655.97 225.21 652.69 224.39 647.78 221.93 645.32 214.56 645.32 191.63 648.6 167.88 652.69 164.61 655.97 165.43 661.7 167.88 664.16 185.08 664.16 188.36 665.8 191.63 669.07 190.81 673.17 184.26 678.08 175.25 685.45 171.16 689.55 170.34 696.92 171.98 701.01 176.89 701.83 179.35 700.19 185.9 694.46"/>
  <polygon fill="currentColor" class="cls-1" points="825.49 284.99 827.13 284.99 827.13 286.63 830.4 289.09 838.59 294 847.6 296.46 857.43 296.46 859.07 295.64 863.16 290.72 869.71 281.71 868.89 275.98 856.61 266.97 850.88 265.34 846.78 269.43 848.42 274.34 853.33 278.44 853.33 283.35 849.24 284.17 840.23 282.53 834.5 278.44 831.22 272.71 831.22 265.34 834.5 257.15 840.23 250.6 845.96 247.32 853.33 246.5 860.7 248.96 865.62 254.69 868.07 263.7 873.81 266.97 877.9 265.34 879.54 261.24 878.72 253.87 877.08 250.6 871.35 244.04 863.16 238.31 852.51 235.04 846.78 235.04 841.87 235.85 835.32 239.13 828.77 244.04 827.13 247.32 825.49 247.32 819.76 258.78 818.12 267.79 819.76 275.98 825.49 284.99"/>
  <polygon fill="currentColor" class="cls-1" points="488.91 201.46 497.1 205.55 518.39 208.01 521.66 209.65 521.66 217.84 521.66 217.84 520.03 217.84 513.47 221.11 507.74 221.11 505.28 220.29 501.19 217.02 495.46 214.56 489.72 217.02 489.72 222.75 493.82 227.66 502.01 231.76 514.29 231.76 524.94 228.48 530.67 224.39 534.77 217.84 534.77 207.19 533.95 204.73 530.67 199.82 523.3 195.73 510.2 194.09 499.55 192.45 497.1 189.99 497.91 185.9 502.83 183.44 510.2 183.44 515.11 186.72 522.48 186.72 525.76 184.26 525.76 180.17 524.12 177.71 519.21 174.43 512.66 171.98 505.28 171.98 500.37 172.8 492.18 176.07 487.27 180.17 483.99 186.72 483.99 194.91 484.81 196.55 488.91 201.46"/>
  <polygon fill="currentColor" class="cls-1" points="602.74 1027.77 604.38 1023.67 604.38 1013.85 606.83 1008.11 610.93 1004.84 615.84 1004.84 616.66 1007.29 623.21 1017.12 629.76 1026.13 633.04 1027.77 639.59 1027.77 642.87 1026.13 642.05 1020.4 636.31 1013.03 630.58 1004.84 624.03 995.83 624.03 990.92 624.85 989.28 639.59 972.9 637.95 969.62 628.13 969.62 625.67 970.44 615.84 981.09 614.2 984.36 612.57 984.36 609.29 988.46 605.2 990.1 603.56 987.64 602.74 975.36 601.92 972.9 597.82 970.44 592.91 971.26 590.45 973.72 590.45 993.37 591.27 1022.03 592.09 1026.13 594.55 1028.59 601.1 1028.59 602.74 1027.77"/>
  <polygon fill="currentColor" class="cls-1" points="931.95 872.99 923.76 864.8 914.75 857.43 909.02 851.7 902.47 845.96 897.56 845.14 894.28 847.6 893.46 852.51 897.56 857.43 906.56 864.8 912.3 870.53 913.12 874.63 907.38 874.63 904.93 873.81 882.82 869.71 872.99 869.71 868.89 873.81 868.89 878.72 870.53 881.18 878.72 887.73 898.37 905.75 906.56 913.12 911.48 913.93 914.75 911.48 915.57 907.38 913.12 904.11 906.56 898.38 897.56 889.37 895.92 885.27 906.56 886.09 928.68 890.19 936.05 889.37 939.32 886.09 940.96 882 938.5 877.9 931.95 872.99"/>
  <polygon fill="currentColor" class="cls-1" points="977.81 463.52 974.54 465.98 975.36 473.35 976.99 474.17 982.73 474.17 998.29 470.07 1007.29 468.43 1007.29 470.89 1003.2 475.8 997.47 482.35 988.46 491.36 983.54 497.91 983.54 502.83 986 507.74 994.19 507.74 1026.95 498.73 1035.14 496.28 1041.69 493.82 1042.51 488.09 1040.05 484.81 1032.68 484.81 1018.76 488.91 1009.75 489.72 1009.75 486.45 1012.21 483.17 1025.31 469.25 1032.68 461.06 1031.86 453.69 1029.41 451.23 1023.67 451.23 1011.39 454.51 977.81 463.52"/>
  <polygon fill="currentColor" class="cls-1" points="297.27 305.46 303.83 307.92 312.83 307.1 325.12 301.37 333.31 298.91 338.22 299.73 338.22 307.92 336.58 311.2 330.85 315.29 317.75 315.29 312.83 319.39 312.83 323.48 314.47 325.12 322.66 328.39 330.03 327.58 339.04 323.48 348.05 314.47 351.32 307.92 351.32 298.91 350.51 296.46 345.59 289.9 339.04 286.63 332.49 285.81 325.94 287.45 317.75 291.54 309.56 294.82 303.83 294 303.01 289.9 304.64 286.63 309.56 282.53 319.39 281.71 324.3 279.26 325.94 275.98 325.12 272.71 321.02 270.25 309.56 270.25 301.37 275.16 294.82 281.71 291.54 288.27 291.54 298.09 292.36 299.73 297.27 305.46"/>
  <polygon fill="currentColor" class="cls-1" points="253.87 772.26 253.87 777.99 253.05 779.63 252.23 786.18 255.51 790.28 259.6 791.09 262.88 788.64 266.15 780.45 266.15 773.08 265.34 769.8 262.06 762.43 256.33 755.88 247.32 750.97 237.49 750.15 230.94 750.97 223.57 753.42 213.74 759.16 207.19 766.53 204.73 774.72 204.73 785.36 206.37 789.46 210.47 796.83 216.2 801.74 224.39 805.02 232.58 805.02 235.04 802.56 235.04 796.83 233.4 794.37 223.57 791.91 219.48 789.46 216.2 783.72 216.2 777.99 217.02 775.53 221.11 770.62 228.48 765.71 238.31 762.43 245.68 763.25 250.6 766.53 253.87 772.26"/>
  <path fill="currentColor" class="cls-1" d="M441.41,971.26l12.28-4.09,4.91-5.73,2.46-6.55-.82-6.55-4.91-6.55-8.19-4.91-19.65-9.01-4.91-.82-2.46,1.64-4.09,7.37-6.55,13.1-10.65,22.93-.82,5.73,3.28,3.28h6.55l.82-.82,5.73-10.65,1.64-4.91,4.91-.82,4.09,2.46,2.46,4.91,4.09,20.47,3.28,4.09,7.37,2.46,2.46-2.46v-4.91l-2.46-13.1-.82-6.55Zm-4.09-11.47l-6.55-2.46-6.55-4.09v-5.73l.82-1.64,3.28-4.09h5.73l7.37,3.28,5.73,4.91v5.73l-3.28,3.28-6.55,.82Z"/>
  <polygon fill="currentColor" class="cls-1" points="283.35 864.8 279.26 861.52 274.34 861.52 269.43 860.7 264.52 857.43 261.24 852.51 261.24 846.78 263.7 841.05 271.07 834.5 280.08 829.58 289.09 829.58 291.54 830.4 295.64 833.68 298.09 841.05 298.09 850.06 302.19 854.15 307.92 853.33 310.38 846.78 310.38 839.41 309.56 836.14 304.64 827.13 297.27 820.58 289.09 817.3 277.62 817.3 270.25 819.76 261.24 825.49 253.87 833.68 249.78 841.87 249.78 852.51 253.87 862.34 259.6 868.07 266.97 872.17 273.53 873.81 280.9 872.99 283.35 871.35 283.35 864.8"/>
  <path fill="currentColor" class="cls-1" d="M664.16,224.39l2.46-1.64,2.46-9.83,2.46-9.01,2.46-.82,4.09,.82,3.28,2.46,4.91,9.83,6.55,12.28,4.91,2.46h6.55l.82-.82v-4.09l-1.64-4.91-7.37-13.92,.82-3.28,6.55-3.28,4.09-4.09,2.46-4.91v-8.19l-2.46-5.73h-1.64v-1.64l-8.19-4.09-19.65-4.09-11.47-.82-1.64,.82-1.64,3.28-4.91,27.02-2.46,13.92-.82,8.19,3.28,4.09h5.73Zm32.76-33.58l-4.09,3.28-6.55,.82-10.65-2.46-2.46-2.46,.82-9.01,2.46-2.46h5.73l10.65,2.46,4.09,3.28v6.55Z"/>
  <polygon fill="currentColor" class="cls-1" points="196.55 564.25 186.72 564.25 182.62 565.89 176.07 571.62 172.8 578.17 172.8 586.36 174.43 589.64 180.17 596.19 186.72 600.28 196.55 600.28 199 599.46 205.55 594.55 210.47 587.18 210.47 576.53 208.83 573.26 203.1 567.52 196.55 564.25"/>
  <polygon fill="currentColor" class="cls-1" points="173.61 498.73 189.17 494.64 202.28 490.54 211.29 490.54 221.93 493.82 229.3 494.64 230.12 493.82 233.4 488.91 232.58 484.81 230.12 483.17 215.38 479.08 209.65 476.62 202.28 469.25 189.99 456.15 185.9 452.05 181.8 452.05 180.17 453.69 179.35 461.06 180.17 462.7 185.08 468.43 188.36 470.07 188.36 471.71 193.27 477.44 192.45 480.72 176.89 484.81 170.34 488.09 168.7 491.36 167.88 496.28 169.52 497.91 173.61 498.73"/>
  <path fill="currentColor" class="cls-1" d="M691.18,988.46l-11.47-18.02-4.09-4.09h-9.01l-4.09,4.09-3.28,13.1-2.46,12.28-4.91,23.75v6.55l3.28,1.64,4.91-.82,3.28-2.46,2.46-8.19,2.46-3.28,14.74-3.28,6.55,.82,4.09,4.91,4.09,4.09h5.73l2.46-.82,1.64-3.28-3.28-6.55-13.1-20.47Zm-22.11,4.91l2.46-7.37h3.28l1.64,1.64,4.09,6.55,.82,4.09-2.46,2.46-7.37,.82-2.46-2.46v-5.73Z"/>
  <path fill="currentColor" class="cls-1" d="M888.55,915.57l-12.28-6.55-27.02-14.74h-6.55l-4.09,2.46-2.46,4.09,.82,7.37,4.09,11.47,3.28,10.65,4.09,12.28,4.91,13.1,5.73,.82,4.09-4.09v-5.73l-.82-2.46v-5.73l2.46-3.28,11.47-9.01h6.55l4.09,2.46,5.73,.82,5.73-4.91-1.64-4.09-8.19-4.91Zm-36.03,3.28v-6.55l.82-.82h3.28l4.91,2.46,4.09,3.28v4.09l-3.28,3.28-5.73,.82-1.64-1.64-2.46-4.91Z"/>
  <path fill="currentColor" class="cls-1" d="M551.96,221.93l4.91-2.46,4.09-9.83,4.91-1.64,15.56-.82,3.28,1.64,3.28,5.73,4.91,4.09h5.73l1.64-.82,1.64-4.09-22.93-45.86-4.09-4.91-4.91-.82-4.91,.82-3.28,2.46-9.83,29.48-5.73,18.02-.82,7.37,.82,.82,5.73,.82Zm20.47-40.13l3.28,4.91,2.46,7.37-3.28,3.28h-7.37l-2.46-2.46,.82-5.73,3.28-7.37h3.28Z"/>
  <path fill="currentColor" class="cls-1" d="M502.83,963.89l-1.64-6.55-4.91-3.28h-7.37l-1.64,.82-7.37,9.01-10.65,13.1-7.37,9.01-1.64,3.28h-1.64l-5.73,7.37-.82,4.91,4.09,2.46h5.73l5.73-4.91,.82-2.46,6.55-.82,13.92,4.09,3.28,2.46,2.46,10.65,3.28,3.28,5.73,.82,3.28-3.28-.82-11.47-3.28-38.49Zm-10.65,14.74v7.37l-1.64,2.46h-5.73l-2.46-.82-2.46-2.46,.82-4.09,3.28-4.91,4.09-3.28h2.46l1.64,5.73Z"/>
  <path fill="currentColor" class="cls-1" d="M398.82,912.3l-4.91-4.91-6.55-.82-1.64,.82-10.65,7.37-18.02,12.28-13.1,9.01-4.09,4.91,.82,3.28,4.09,2.46h4.91l7.37-4.09h4.91l1.64,.82,10.65,6.55,3.28,4.09v12.28l4.91,4.09h4.91l1.64-3.28,4.91-22.93,4.91-25.39v-6.55Zm-13.92,14.74l-1.64,9.01-2.46,3.28h-4.09l-4.09-2.46-.82-5.73,4.09-3.28,4.91-3.28h1.64l2.46,2.46Z"/>
  <polygon fill="currentColor" class="cls-1" points="560.15 967.98 553.6 969.62 550.33 973.72 542.14 982.73 538.04 983.54 535.59 981.09 530.67 967.98 525.76 962.25 520.03 961.43 517.57 962.25 515.93 965.53 521.66 979.45 528.21 995.01 528.21 1005.66 526.58 1013.03 526.58 1020.4 527.4 1021.22 532.31 1022.85 536.4 1022.03 538.86 1018.76 540.5 1008.11 542.96 999.92 547.05 994.19 560.15 981.09 560.15 979.45 561.79 979.45 566.71 972.9 565.07 969.62 560.15 967.98"/>
  <path fill="currentColor" class="cls-1" d="M759.16,979.45l-8.19-5.73v-12.28l-.82-2.46-3.28-4.91-6.55-3.28h-8.19l-9.83,2.46-16.38,5.73-3.28,2.46v6.55l4.09,11.47,11.47,31.12,4.09,4.09,5.73-.82,22.93-8.19,8.19-4.91,3.28-6.55v-9.01l-.82-2.46-2.46-3.28Zm-20.47-9.01l-3.28,3.28-11.47,4.09-4.09-.82-1.64-3.28-.82-5.73,3.28-3.28,11.47-3.28h2.46l4.09,2.46,.82,3.28-.82,3.28Zm-11.47,16.38l10.65-3.28h8.19l1.64,.82,2.46,5.73-.82,4.09-2.46,2.46-13.1,4.91-5.73-.82-2.46-4.91-.82-6.55,2.46-2.46Z"/>
  <path fill="currentColor" class="cls-1" d="M832.86,942.6l-7.37-2.46-1.64-1.64-1.64-10.65-3.28-4.91-5.73-3.28h-9.01l-2.46,.82-10.65,4.91-11.47,6.55-4.09,3.28-.82,4.09,2.46,4.91,8.19,13.92,6.55,10.65,5.73,9.83,4.09,4.91,5.73,.82,6.55-3.28,14.74-9.01,6.55-4.91,4.09-6.55,.82-6.55-3.28-8.19-4.09-3.28Zm-28.66,13.92l13.1-6.55h4.09l4.91,3.28,.82,5.73-4.09,4.91-9.83,5.73-4.09,.82-2.46-1.64-3.28-4.91-.82-5.73,1.64-1.64Zm5.73-14.74l-9.01,5.73-5.73,.82-2.46-2.46-2.46-4.91,1.64-4.09,11.47-5.73h4.91l1.64,.82,2.46,4.09-2.46,5.73Z"/>
  <polygon fill="currentColor" class="cls-1" points="613.38 171.98 615.02 172.8 616.66 176.07 616.66 217.02 619.12 219.48 626.49 219.48 628.94 216.2 630.58 174.43 632.22 172.8 645.32 171.16 646.96 169.52 647.78 165.43 643.69 162.15 624.03 161.33 604.38 161.33 601.1 162.97 600.28 168.7 603.56 171.16 613.38 171.98"/>
  <path fill="currentColor" class="cls-1" d="M220.29,454.51l12.28,13.1,4.09,.82,4.09-4.09v-5.73l-3.28-4.09-3.28-4.91,.82-4.91,4.91-10.65,4.09-4.09,10.65-.82,2.46-.82,2.46-4.09,.82-4.09-3.28-2.46-41.77-2.46h-16.38l-3.28,2.46-2.46,6.55,.82,4.09,26.21,26.21Zm-7.37-23.75l1.64-3.28h10.65l3.28,2.46v4.09l-2.46,4.09-4.09,.82-4.09-2.46-4.91-5.73Z"/>
  <polygon fill="currentColor" class="cls-1" points="231.76 393.09 247.32 393.09 249.78 393.91 263.7 402.1 269.43 402.92 273.53 398.82 273.53 394.73 272.78 393.61 272.71 393.09 272.36 392.97 271.89 392.27 269.27 390.8 265.34 388.18 262.82 387.17 258.78 384.9 253.05 379.99 248.14 371.8 238.31 352.96 234.22 350.51 231.76 351.32 229.3 355.42 228.48 361.15 236.67 374.25 237.49 379.17 235.85 380.81 217.84 381.63 214.56 382.44 210.47 386.54 208.83 391.45 212.92 393.91 231.76 393.09"/>
  <path fill="currentColor" class="cls-1" d="M859.88,306.28l.82,4.09,4.09,3.28h6.55l3.28-1.64,5.73-.82,4.09,2.46,9.83,9.83,.82,4.91-1.64,4.09-.82,5.73,2.46,3.28,4.09,2.46,4.09-2.46,19.65-49.14-.82-5.73-5.73-4.91h-5.73l-9.01,4.09-17.2,8.19-20.47,9.01-4.09,3.28Zm31.94-1.64l1.64-2.46,9.83-4.91h2.46l1.64,1.64-.82,4.91-3.28,6.55-4.09,2.46-5.73-4.09-1.64-4.09Z"/>
  <path fill="currentColor" class="cls-1" d="M967.17,821.39l-5.73-4.91-8.19-4.91-7.37-3.28-9.83-.82-6.55,1.64-7.37,4.91-5.73,7.37-9.01,12.28v5.73l1.64,2.46,3.28,1.64,24.57,16.38,13.1,9.01h5.73l1.64-1.64,11.47-15.56,4.09-10.65v-8.19l-1.64-4.09-4.09-7.37Zm-5.73,13.92v7.37l-.82,2.46-4.09,6.55-4.91,2.46-4.09-.82-9.01-6.55-9.01-5.73-6.55-5.73v-4.09l5.73-8.19,5.73-3.28h7.37l9.83,4.91,6.55,5.73,3.28,4.91Z"/>
  <path fill="currentColor" class="cls-1" d="M936.05,393.91l.82,4.91,11.47,18.02,5.73,5.73,6.55,3.28h14.74l10.65-4.91,9.83-7.37,5.73-9.01,.82-8.19-2.46-9.83-6.55-11.47-6.55-8.19-4.09-.82-2.46,.82-9.83,5.73-7.37,4.09-23.75,13.92-3.28,3.28Zm45.04-13.1l4.09,1.64,4.91,8.19,.82,6.55-1.64,4.91-8.19,7.37-9.83,4.91h-9.01l-2.46-.82-2.46-2.46-4.91-6.55-.82-5.73,4.09-4.09,12.28-7.37,13.1-6.55Z"/>
  <path fill="currentColor" class="cls-1" d="M352.14,915.57l4.91-1.64,5.73-4.91,4.09-8.19v-6.55l-.82-2.46-3.28-4.91-3.28-1.64v-1.64l-7.37-6.55-9.01-7.37-4.09-.82-2.46,.82-3.28,3.28-7.37,9.01-9.83,10.65-5.73,6.55-7.37,8.19-.82,4.09,5.73,4.91,4.09-.82,9.01-9.83,5.73-.82,9.01,6.55,8.19,4.09h8.19Zm-4.09-11.47l-5.73-.82-8.19-5.73-.82-5.73,6.55-7.37h4.91l5.73,4.91,3.28,4.91-.82,6.55-4.91,3.28Z"/>
  <path fill="currentColor" class="cls-1" d="M732.95,236.67l.82,3.28,6.55,2.46,3.28-.82,4.09-4.09,4.09-2.46h5.73l8.19,3.28,7.37,3.28,.82,2.46,.82,9.83,4.09,3.28,4.91,.82,2.46-2.46v-39.31l-.82-16.38-1.64-2.46-4.91-2.46h-6.55l-7.37,7.37-5.73,6.55-4.09,3.28-4.09,4.91-5.73,6.55-6.55,6.55-5.73,6.55Zm28.66-14.74l2.46-3.28,6.55-5.73h2.46l1.64,2.46v10.65l-2.46,3.28h-4.09l-5.73-3.28-.82-4.09Z"/>
  <polygon fill="currentColor" class="cls-1" points="650.24 820.58 645.32 816.48 639.32 813.21 637.95 812.39 637.63 812.29 636.31 811.57 622.39 807.47 592.91 801.74 583.9 799.28 578.99 796.01 578.99 790.28 580.63 788.64 588.82 785.36 610.11 785.36 614.2 787 619.94 790.28 623.21 795.19 628.94 797.65 646.96 796.83 649.42 796.01 651.06 793.55 650.86 792.39 651.06 791.91 650.56 790.6 650.24 788.64 649.05 786.55 648.6 785.36 647.9 784.54 646.96 782.9 645 781.16 643.69 779.63 642.75 779.16 639.59 776.35 629.76 771.44 615.02 768.16 594.55 767.34 580.63 768.98 569.16 772.26 560.97 776.35 559.88 777.72 556.88 780.12 556.06 780.45 554.42 782.09 550.33 790.28 550.33 798.46 551.15 800.92 555.24 807.47 565.07 814.84 576.53 818.94 583.08 820.39 583.08 820.58 594.22 822.87 598.64 823.85 613.29 827.04 619.44 828.93 622.94 830.68 624.41 831.85 625.92 834.37 626.28 836.55 625.79 839.53 625.4 840.5 623.21 842.69 620.4 844.79 613.38 847.6 601.92 848.42 591.27 847.6 583.9 845.14 578.17 841.05 573.26 833.68 572.83 833.42 572.44 832.86 571.89 832.86 569.16 831.22 564.25 831.22 550.33 832.04 547.05 833.68 546.23 836.14 547.05 841.05 547.75 842.22 547.87 842.69 549.02 844.33 549.51 845.14 550.16 845.96 553.6 850.88 555.08 852.11 556.06 853.33 558.14 854.66 558.52 854.97 558.63 854.97 560.68 856.27 560.97 856.61 562.06 857.16 565.07 859.07 567.85 860.05 569.16 860.7 570.64 861.03 574.22 862.29 574.08 862.34 578.99 863.98 598.64 865.62 615.84 864.8 621.98 863.98 622.39 863.98 628.13 863.16 633.04 861.52 644.5 855.79 651.06 849.24 655.15 841.05 655.15 831.22 654.33 827.95 650.24 820.58"/>
  <polygon fill="currentColor" class="cls-1" points="723.94 236.67 726.4 235.04 729.67 223.57 734.59 205.55 738.68 190.81 739.5 183.44 735.41 180.17 730.49 180.17 727.22 183.44 723.12 199.82 714.93 228.48 714.93 234.22 716.57 235.85 723.94 236.67"/>
  <path fill="currentColor" class="cls-1" d="M360.33,296.46l3.28,2.46,3.28-.82,4.09-3.28v-13.92l1.64-2.46,8.19-5.73,4.91-3.28h4.91l5.73,3.28,6.55,.82,4.91-4.09-.82-4.09-12.28-8.19-2.17-1.2-1.93-1.25-.6-.15-2.68-1.49-14.74-9.83-9.01-5.73-7.37-2.46-2.46,.82-5.73,4.91v5.73l.82,4.09,11.47,45.86Zm15.56-32.76l-4.91,4.09h-4.91l-3.28-6.55-.82-7.37,2.46-1.64,8.19,4.09,4.09,4.09-.82,3.28Z"/>
  <path fill="currentColor" class="cls-1" d="M257.97,342.32l4.91,9.01,2.46,3.28,9.01,16.38,5.73,8.19,4.91,.82,3.28-3.28,.82-4.91-3.28-6.55-.82-4.91,6.55-9.01,5.73-5.73h6.55l2.46,.82h5.73l4.09-2.46,1.64-3.28-1.64-4.09-13.92-4.09-27.02-8.19-.46-.06-7.73-2.4-8.19-.82-4.09,2.46-2.46,4.09,.82,6.55,4.91,8.19Zm17.2,6.55l-4.91-7.37-.82-4.91,1.64-.82h3.28l8.19,2.46,3.28,4.09-1.64,3.28-4.91,4.09-4.09-.82Z"/>
  <polygon fill="currentColor" class="cls-1" points="1038.41 566.71 1031.86 564.25 1023.67 564.25 1021.22 565.07 1013.85 569.98 1010.57 575.71 1009.75 583.08 1011.39 590.45 1016.3 596.19 1024.49 600.28 1032.68 600.28 1036.78 598.64 1042.51 593.73 1046.6 587.18 1047.42 579.81 1045.78 574.89 1042.51 570.8 1038.41 566.71"/>
  <polygon fill="currentColor" class="cls-1" points="513.47 768.98 508.56 769.8 505.28 771.44 500.37 777.17 500.02 777.87 497.91 780.45 489.72 790.28 488.09 793.55 486.45 793.55 483.17 798.46 477.44 803.38 471.71 800.92 466.79 794.37 447.14 771.44 445.21 770.72 445.5 770.62 440.59 768.98 419.3 768.98 416.84 769.8 416.02 773.9 427.49 787 428.47 787 429.12 788.64 430.76 790.28 436.49 796.83 447.14 808.29 452.87 814.84 458.61 820.58 461.06 825.49 461.88 859.88 463.52 863.16 465.98 863.98 486.45 863.98 488.09 863.16 489.72 859.88 490.54 826.31 492.18 821.39 492.67 820.9 494.64 818.94 497.5 815.66 501.19 811.57 504.06 808.29 507.74 804.2 514.29 797.65 514.29 797.24 520.84 790.28 522.48 787 524.12 787 526.58 783.72 534.77 775.53 535.59 770.62 532.31 768.98 513.47 768.98"/>
  <polygon fill="currentColor" class="cls-1" points="311.2 881.18 312.02 878.72 313.65 878.72 319.39 873.81 321.02 870.53 322.66 870.53 329.21 864.8 331.67 860.7 330.85 857.43 328.39 854.97 322.66 854.15 321.02 854.97 312.02 863.16 305.46 868.89 297.38 876.3 297.27 876.26 295.64 877.9 295.64 877.9 289.09 883.63 284.17 889.37 283.35 893.46 287.45 897.56 291.54 897.56 296.46 894.28 304.64 886.91 311.2 881.18"/>
</svg>